<?xml version="1.0" encoding="iso-8859-1"?>
<!-- Generator: Adobe Illustrator 19.0.0, SVG Export Plug-In . SVG Version: 6.00 Build 0)  -->
<svg version="1.1" id="Layer_1" xmlns="http://www.w3.org/2000/svg" xmlns:xlink="http://www.w3.org/1999/xlink" x="0px" y="0px"
	 viewBox="0 0 512 512" style="enable-background:new 0 0 512 512;" xml:space="preserve">
<g>
	<g>
		<path d="M500.87,155.826h-55.652c-0.978,0-1.958,0.022-2.938,0.066C426.398,66.263,348.222,0,256,0S85.602,66.263,69.721,155.892
			c-0.981-0.043-1.96-0.066-2.938-0.066H11.13c-6.146,0-11.13,4.983-11.13,11.13v44.87c0,35.065,17.368,67.733,46.455,87.383
			c1.396,0.944,2.836,1.867,4.279,2.743c5.118,3.11,10.494,5.777,16.049,7.966v12.865C66.783,427.117,151.666,512,256,512
			s189.217-84.883,189.217-189.217v-12.886c17.973-7.111,33.969-19.245,45.648-34.761C504.693,256.766,512,234.874,512,211.827
			v-44.87C512,160.809,507.016,155.826,500.87,155.826z M489.74,211.827h-0.001c0,36.33-23.012,67.892-57.415,79.049h-20.498
			c-6.146,0-11.13,4.983-11.13,11.13c0,6.147,4.984,11.13,11.13,11.13h11.13v9.646c0,92.06-74.897,166.957-166.957,166.957
			S89.044,414.842,89.044,322.783v-9.647h11.13c6.146,0,11.13-4.983,11.13-11.13s-4.984-11.13-11.13-11.13H79.613
			c-6.046-1.97-11.87-4.636-17.321-7.948c-1.136-0.691-2.271-1.417-3.371-2.162c-22.954-15.507-36.659-41.278-36.659-68.939v-33.74
			h44.522c3.294,0,6.622,0.376,9.893,1.117c0.026,0.006,0.052,0.008,0.078,0.013c0.249,0.055,0.504,0.092,0.76,0.13
			c0.131,0.02,0.262,0.046,0.394,0.06c0.215,0.023,0.434,0.031,0.652,0.042c0.17,0.009,0.342,0.024,0.512,0.026
			c0.022,0,0.043,0.003,0.065,0.003c11.404,0.001,21.038,14.654,21.038,31.999c0,6.147,4.984,11.13,11.13,11.13
			c6.146,0,11.13-4.983,11.13-11.13c0-13.912-4.128-27.107-11.625-37.158c-5.212-6.988-11.849-12.045-19.117-14.776
			C105.804,80.598,174.711,22.261,256,22.261s150.195,58.337,164.306,137.283c-7.268,2.73-13.905,7.789-19.117,14.776
			c-7.496,10.052-11.625,23.247-11.625,37.159c0,6.147,4.984,11.13,11.13,11.13c6.146,0,11.13-4.983,11.13-11.13
			c0-17.345,9.633-31.998,21.036-31.998c0.022,0,0.043-0.003,0.066-0.003c0.17-0.001,0.339-0.017,0.51-0.026
			c0.219-0.011,0.439-0.019,0.654-0.042c0.134-0.014,0.265-0.041,0.398-0.06c0.254-0.038,0.506-0.076,0.754-0.13
			c0.027-0.006,0.055-0.008,0.081-0.013c3.27-0.742,6.599-1.117,9.893-1.117h44.522V211.827z"/>
	</g>
</g>
<g>
	<g>
		<path d="M189.217,178.087c-30.687,0-55.652,24.966-55.652,55.652c0,30.687,24.966,55.652,55.652,55.652
			c30.687,0,55.652-24.966,55.652-55.652C244.87,203.052,219.904,178.087,189.217,178.087z M189.217,267.13
			c-18.412,0-33.391-14.979-33.391-33.391s14.979-33.391,33.391-33.391c18.412,0,33.391,14.979,33.391,33.391
			S207.629,267.13,189.217,267.13z"/>
	</g>
</g>
<g>
	<g>
		<path d="M322.783,178.087c-30.687,0-55.652,24.966-55.652,55.652c0,30.687,24.966,55.652,55.652,55.652
			c30.687,0,55.652-24.966,55.652-55.652C378.435,203.052,353.469,178.087,322.783,178.087z M322.783,267.13
			c-18.412,0-33.391-14.979-33.391-33.391s14.979-33.391,33.391-33.391c18.412,0,33.391,14.979,33.391,33.391
			S341.195,267.13,322.783,267.13z"/>
	</g>
</g>
<g>
	<g>
		<path d="M314.351,318.551c-1.358-0.339-2.731-0.668-4.118-0.983c-9.708-2.208-20.103-3.826-30.964-4.813c-0.002,0-0.004,0-0.007,0
			c-0.003,0-0.006-0.001-0.008-0.001c-15.235-1.367-31.39-1.455-46.364-0.279c-1.529,0.117-3.051,0.247-4.566,0.39
			c-10.603,0.997-20.833,2.62-30.472,4.837c-40.856,9.399-64.288,27.479-64.288,49.603c0,16.724,13.87,31.566,39.053,41.794
			c22.006,8.937,51.026,13.859,81.712,13.859s59.706-4.922,81.712-13.859c25.184-10.228,39.053-25.07,39.053-41.794
			C375.096,345.945,352.952,328.174,314.351,318.551z M294.498,337.152c0.452,0.076,0.899,0.157,1.349,0.235
			c1.287,0.226,2.562,0.463,3.826,0.71c0.283,0.056,0.568,0.109,0.849,0.166v17.911h-11.13v-19.826
			c0.037,0.006,0.073,0.01,0.11,0.016C291.187,336.608,292.85,336.874,294.498,337.152z M211.477,337.627h0.001
			c0.282-0.051,0.564-0.1,0.846-0.151c1.26-0.225,2.529-0.439,3.807-0.642c0.46-0.072,0.917-0.148,1.379-0.218
			c1.634-0.249,3.28-0.485,4.942-0.7c0.052-0.007,0.105-0.012,0.156-0.019v20.277h-11.13V337.627z M254.33,400.696
			c-60.131,0-98.504-19.777-98.504-33.391c0-7.14,11.418-16.979,33.391-24.153v24.153c0,6.147,4.984,11.13,11.13,11.13h33.391
			c6.146,0,11.13-4.983,11.13-11.13v-33.215c3.13-0.115,6.289-0.176,9.461-0.176c4.281,0,8.558,0.116,12.8,0.324v33.067
			c0,6.147,4.984,11.13,11.13,11.13h33.391c6.146,0,11.13-4.983,11.13-11.13v-23.033c20.542,7.262,30.052,16.536,30.052,23.033
			C352.835,380.919,314.461,400.696,254.33,400.696z"/>
	</g>
</g>
<g>
	<g>
		<path d="M411.601,243.066c-0.131-0.712-0.355-1.414-0.633-2.081s-0.623-1.325-1.024-1.926c-0.4-0.612-0.867-1.18-1.38-1.692
			c-0.512-0.512-1.08-0.979-1.692-1.38c-0.601-0.401-1.247-0.746-1.926-1.024c-0.668-0.278-1.368-0.49-2.08-0.634
			c-1.436-0.289-2.916-0.289-4.341,0c-0.712,0.145-1.414,0.356-2.081,0.634c-0.679,0.278-1.323,0.623-1.924,1.024
			c-0.613,0.401-1.181,0.868-1.693,1.38c-2.07,2.07-3.261,4.942-3.261,7.869c0,0.723,0.067,1.458,0.21,2.182
			c0.145,0.712,0.367,1.402,0.646,2.081c0.278,0.668,0.612,1.313,1.024,1.914c0.401,0.612,0.868,1.18,1.38,1.692
			c0.512,0.523,1.08,0.979,1.693,1.391c0.601,0.401,1.245,0.746,1.924,1.024c0.669,0.278,1.369,0.49,2.081,0.634
			c0.712,0.145,1.447,0.211,2.17,0.211c0.722,0,1.458-0.067,2.17-0.211c0.712-0.145,1.414-0.356,2.08-0.634
			c0.679-0.278,1.325-0.623,1.926-1.024c0.612-0.412,1.18-0.868,1.692-1.391c0.513-0.512,0.981-1.08,1.38-1.692
			c0.401-0.601,0.746-1.247,1.024-1.914c0.278-0.679,0.501-1.369,0.634-2.081c0.145-0.723,0.223-1.458,0.223-2.182
			C411.824,244.513,411.746,243.779,411.601,243.066z"/>
	</g>
</g>
<g>
	<g>
		<path d="M122.211,243.066c-0.132-0.712-0.356-1.414-0.634-2.081s-0.623-1.325-1.024-1.926c-0.4-0.612-0.867-1.18-1.38-1.692
			c-0.512-0.512-1.08-0.979-1.692-1.38c-0.601-0.401-1.247-0.746-1.926-1.024c-0.668-0.278-1.368-0.49-2.08-0.634
			c-1.436-0.289-2.916-0.289-4.341,0c-0.712,0.145-1.414,0.356-2.093,0.634c-0.669,0.278-1.313,0.623-1.914,1.024
			c-0.613,0.401-1.181,0.868-1.693,1.38c-0.512,0.512-0.979,1.08-1.391,1.692c-0.401,0.601-0.735,1.258-1.013,1.926
			c-0.278,0.668-0.501,1.369-0.646,2.081s-0.21,1.447-0.21,2.17c0,0.735,0.067,1.458,0.21,2.182
			c0.145,0.712,0.367,1.402,0.646,2.081c0.278,0.668,0.612,1.313,1.013,1.914c0.412,0.612,0.879,1.18,1.391,1.703
			c0.512,0.512,1.08,0.968,1.693,1.38c0.601,0.401,1.246,0.746,1.914,1.024c0.679,0.278,1.38,0.49,2.092,0.634
			c0.712,0.145,1.447,0.211,2.17,0.211c0.722,0,1.458-0.067,2.17-0.211c0.712-0.145,1.414-0.356,2.08-0.634
			c0.679-0.278,1.325-0.623,1.926-1.024c0.612-0.412,1.18-0.868,1.692-1.38c0.513-0.523,0.981-1.091,1.38-1.703
			c0.401-0.601,0.746-1.247,1.024-1.914c0.278-0.679,0.501-1.369,0.634-2.081c0.145-0.723,0.223-1.458,0.223-2.182
			C122.434,244.513,122.356,243.779,122.211,243.066z"/>
	</g>
</g>
<g>
</g>
<g>
</g>
<g>
</g>
<g>
</g>
<g>
</g>
<g>
</g>
<g>
</g>
<g>
</g>
<g>
</g>
<g>
</g>
<g>
</g>
<g>
</g>
<g>
</g>
<g>
</g>
<g>
</g>
</svg>
